<?xml version="1.0" standalone="no"?>
<!DOCTYPE svg PUBLIC "-//W3C//DTD SVG 20010904//EN"
 "http://www.w3.org/TR/2001/REC-SVG-20010904/DTD/svg10.dtd">
<svg version="1.0" xmlns="http://www.w3.org/2000/svg"
 width="1216.000000pt" height="1216.000000pt" viewBox="0 0 1216.000000 1216.000000"
 preserveAspectRatio="xMidYMid meet">
<metadata>
Created by potrace 1.14, written by Peter Selinger 2001-2017
</metadata>
<g transform="translate(0.000000,1216.000000) scale(0.100000,-0.100000)"
fill="#000000" stroke="none">
<path d="M3800 8930 l0 -190 -190 0 -190 0 0 -190 0 -190 -190 0 -190 0 0
-190 0 -190 -190 0 -190 0 0 -190 0 -190 -190 0 -190 0 0 -950 0 -950 190 0
190 0 0 -190 0 -190 190 0 190 0 0 -190 0 -190 190 0 190 0 0 -190 0 -190 380
0 380 0 0 -190 0 -190 570 0 570 0 0 190 0 190 380 0 380 0 0 189 0 190 118 0
c64 0 150 0 190 1 l72 0 0 190 0 190 380 0 380 0 0 -190 0 -190 760 0 760 0 0
190 0 190 190 0 190 0 0 190 0 190 190 0 190 0 0 190 0 190 190 0 190 0 0 190
0 190 190 0 190 0 0 190 0 190 190 0 190 0 0 190 0 190 190 0 190 0 0 190 0
190 -190 0 -190 0 0 190 0 190 -190 0 -190 0 0 -190 0 -190 -570 0 -570 0 0
-190 0 -190 -380 0 -380 0 0 -190 0 -190 -380 0 -380 0 0 380 0 380 -380 0
-380 0 0 190 0 190 -190 0 -190 0 0 190 0 190 -190 0 -190 0 0 190 0 190 -190
0 -190 0 0 190 0 190 -950 0 -950 0 0 -190z"/>
<path d="M760 5510 l0 -190 190 0 190 0 0 190 0 190 -190 0 -190 0 0 -190z"/>
<path d="M0 4750 l0 -190 190 0 190 0 0 190 0 190 -190 0 -190 0 0 -190z"/>
</g>
</svg>
